<?xml version="1.0" standalone="no"?>
<!DOCTYPE svg PUBLIC "-//W3C//DTD SVG 20010904//EN"
 "http://www.w3.org/TR/2001/REC-SVG-20010904/DTD/svg10.dtd">
<svg version="1.0" xmlns="http://www.w3.org/2000/svg"
 width="452.000000pt" height="452.000000pt" viewBox="0 0 452.000000 452.000000"
 preserveAspectRatio="xMidYMid meet">
<metadata>
Created by potrace 1.14, written by Peter Selinger 2001-2017
</metadata>
<g transform="translate(0.000000,452.000000) scale(0.100000,-0.100000)"
fill="#000000" stroke="none">
<path d="M416 3625 c-196 -54 -356 -219 -403 -415 -16 -71 -18 -1816 -2 -1895
42 -195 208 -366 409 -419 80 -21 1855 -17 1855 4 0 1 9 3 19 5 46 9 151 71
205 121 87 80 152 193 168 289 3 17 7 37 8 45 2 8 4 28 4 43 l1 28 113 -59
c521 -275 638 -333 674 -336 72 -5 142 33 174 96 l22 42 -1 1086 c0 748 -3
1094 -11 1112 -15 39 -72 92 -112 104 -62 19 -105 7 -252 -70 -78 -40 -196
-102 -262 -136 -66 -34 -171 -89 -232 -122 l-113 -59 -1 28 c-2 56 -8 86 -29
148 -57 173 -208 311 -390 359 -78 21 -1768 21 -1844 1z"/>
</g>
</svg>
